<?xml version="1.0" encoding="UTF-8"?>
<svg id="Layer_1" data-name="Layer 1" xmlns="http://www.w3.org/2000/svg" viewBox="0 0 894.11 601.98">
  <defs>
    <style>
      .cls-1 {
        fill: #01b6e7;
      }
    </style>
  </defs>
  <path class="cls-1" d="M760.32,329.13l-93.53,249.89c-11.56,21.51-33.56,31.11-54.35,14.62l-169.35-182.51c-1.51-.38-19.4,19.22-21.96,21.99-45.97,49.57-89.73,101.61-136.33,150.54-5.36,5.63-12.46,13.64-19.78,16.2-20.45,7.14-38.09-7.89-45.36-26.04l-91.74-244.68c-16.26,5.69-31.23,16-47.7,21.75-34.67,12.11-54.94-5.24-78.65-27.76-.76-.72-1.8-1.21-1.53-2.47,70.63-46.33,141.76-92.02,212.33-138.48,60.57-39.88,119.96-81.86,181.38-120.44,36.5-22.93,51.74-35.79,93.14-10.4,83.13,50.98,165.35,111.52,246.92,165.83,52.83,35.18,106.5,69.12,158.92,104.93l1.37,1.69c.42,2.48-20.42,20.39-23.99,22.77-21.45,14.31-39.55,13.3-62.83,4.07-15.65-6.21-31.22-15.24-46.96-21.48v-.02ZM625.42,463.13l63.82-178.32-244.61-166.27-243.58,166.23,68.74,192.36c1.17,1.04,6.4-4.82,7.5-5.98,49.33-51.9,93.17-113.21,142.83-165.03,15.47-16.14,30.57-20.37,49.48-5.5l155.82,162.51h0ZM527.15,433.5c23.38,24.08,46.88,48.11,69.83,72.62l10.03-10-129.93-137.97c-2.17,3.23-9.56,8.09-11.05,10.99-.4.77-.67,1.23,0,1.98,20.22,20.94,40.85,41.51,61.11,62.38h0Z"/>
  <path class="cls-1" d="M211.62.41c37.47-4.8,73.91,33.18,76.18,69.18,4.15,65.73-69.23,99.18-108.74,40.85C155.65,75.87,163.59,6.57,211.62.41Z"/>
</svg>