<?xml version="1.0" encoding="UTF-8"?>
<svg id="Layer_1" data-name="Layer 1" xmlns="http://www.w3.org/2000/svg" viewBox="0 0 914.24 954.56">
  <defs>
    <style>
      .cls-1 {
        fill: #01b6e7;
      }
    </style>
  </defs>
  <g>
    <path class="cls-1" d="M768.24,329.13l-93.53,249.89c-11.56,21.51-33.56,31.11-54.35,14.62l-169.35-182.51c-1.51-.38-19.4,19.22-21.96,21.99-45.97,49.57-89.73,101.61-136.33,150.54-5.36,5.63-12.46,13.64-19.78,16.2-20.45,7.14-38.09-7.89-45.36-26.04l-91.74-244.68c-16.26,5.69-31.23,16-47.7,21.75-34.67,12.11-54.94-5.24-78.65-27.76-.76-.72-1.8-1.21-1.53-2.47,70.63-46.33,141.76-92.02,212.33-138.48,60.57-39.88,119.96-81.86,181.38-120.44,36.5-22.93,51.74-35.79,93.14-10.4,83.13,50.98,165.35,111.52,246.92,165.83,52.83,35.18,106.5,69.12,158.92,104.93l1.37,1.69c.42,2.48-20.42,20.39-23.99,22.77-21.45,14.31-39.55,13.3-62.83,4.07-15.65-6.21-31.22-15.24-46.96-21.48ZM633.35,463.13l63.82-178.32-244.61-166.27-243.58,166.23,68.74,192.36c1.17,1.04,6.4-4.82,7.5-5.98,49.33-51.9,93.17-113.21,142.83-165.03,15.47-16.14,30.57-20.37,49.48-5.5l155.82,162.51ZM535.07,433.5c23.38,24.08,46.88,48.11,69.83,72.62l10.03-10-129.93-137.97c-2.17,3.23-9.56,8.09-11.05,10.99-.4.77-.67,1.23,0,1.98,20.22,20.94,40.85,41.51,61.11,62.38Z"/>
    <path class="cls-1" d="M219.55.41c37.47-4.8,73.91,33.18,76.18,69.18,4.15,65.73-69.23,99.18-108.74,40.85C163.57,75.87,171.52,6.57,219.55.41Z"/>
  </g>
  <g>
    <path class="cls-1" d="M51.43,664.13l26.96,132.01,32.14-132.05,26.43.63,30.84,120.42,20.99-121h40.96l-45.42,185.07-33.02-1.05-27.96-108.03-27.96,108.03c-.74,1.1-1.86.9-2.96,1.04-3.41.42-31.21.39-32.56-.52l-49.91-184.54h41.46Z"/>
    <path class="cls-1" d="M767.23,728.13h-37.46c-8.03-19.51-20.73-30.5-42.85-27.89-35.6,4.19-42.74,64.99-30.12,90.94,16.55,34.04,66.22,31.51,74.46-6.5l-2.03-1.13-33.31.38-1.62-1.29v-33.5h73.93v31.5c0,11.61-8.17,31.57-14.98,41-24.47,33.84-76.08,39.72-110.03,17.13-47.25-31.44-42.24-124-.35-158.61,46.26-38.22,119.05-13.97,124.36,47.98Z"/>
    <polygon class="cls-1" points="527.46 664.13 527.46 767.13 564.93 722.13 604.39 722.13 550.77 786.64 600.39 849.13 561.93 849.13 527.46 808.13 527.46 849.13 490.5 849.13 490.5 664.13 527.46 664.13"/>
    <path class="cls-1" d="M835.94,719.4c91.38-9.57,85.29,146.19-8.82,131.28-61.14-9.69-62.85-123.77,8.82-131.28ZM838.96,750.38c-32.05,2.51-33.13,61.47-6.24,68.69,45.45,12.2,47.23-71.91,6.24-68.69Z"/>
    <path class="cls-1" d="M344.64,796.13h-75.93c-.72,26.35,28.54,30.91,43.66,13.16l31.29,2.36c-3.91,18.55-22.53,36.89-41.56,39.4-52.18,6.9-78.62-37.85-69.1-85.16,7.74-38.45,52.86-59.66,86.79-38.38,12.94,8.12,24.85,28.79,24.85,44.13v24.5ZM310.67,768.13c-2.49-24.46-37.85-23.97-40.96,0h40.96Z"/>
    <path class="cls-1" d="M471.52,796.13h-75.93c1.1,17.23,13.8,27.85,30.94,22.47,6.69-2.1,8.14-6.24,13.57-9.5,9.1,2.39,20.11.82,28.94,2.03,1.41.19,1.7-.56,1.45,1.47-1.55,12.56-15.51,27.96-26.6,33.39-13.52,6.63-32.77,7.13-46.82,2.16-59.59-21.09-46.25-135.01,25.86-128.88,24.87,2.11,48.58,26.16,48.58,51.37v25.5ZM438.55,768.13c-3.75-24.3-37.35-24.12-40.96,0h40.96Z"/>
  </g>
  <g>
    <polygon class="cls-1" points="745.25 902.13 756.77 903.1 765.73 926.14 774.7 903.11 787.21 902.13 787.21 953.13 776.22 953.13 776.22 924.13 768.57 943.17 762.37 942.99 755.24 925.13 755.24 953.13 745.25 953.13 745.25 902.13"/>
    <path class="cls-1" d="M257.73,902.13l12.03.46,14.93,28.54-.83-27.41c.67-2.73,7.57-1.27,9.83-1.59v51l-10.5-.99-15.47-31.01v32h-9.99v-51Z"/>
    <path class="cls-1" d="M342.64,953.13l-6.94-.11c.56-6.55-5.99.46-9.61,1.04-19.96,3.18-26.28-15.99-24.3-32.32,2.77-22.88,36.45-27.97,40.85-3.62-2.89.16-6.41,1.76-9.29,1.03-1-.25-2.37-5.28-7.28-5.99-13.13-1.88-14.96,12.31-13.17,22.23,1.98,11,19.34,12.78,19.74-.26l-9.88-.12c-5.31-14.5,9.15-6.42,17.47-9.84.83-.23,2.4,1.03,2.4,1.45v26.5Z"/>
    <path class="cls-1" d="M224.49,902.37c34.9-6,36.44,59.36-2.01,51.53-21.16-4.31-22.16-47.38,2.01-51.53ZM225.46,913.34c-11.86,2.74-11.86,34.68,6.57,30.58,10.84-2.41,12.48-34.97-6.57-30.58Z"/>
    <path class="cls-1" d="M618.11,902.37c31.94-5.52,35.02,47.97,8.67,51.67-34.62,4.86-33.65-47.35-8.67-51.67ZM618.08,913.34c-10.39,3.1-11.1,34.83,7.58,30.57,11.5-2.62,11.78-36.34-7.58-30.57Z"/>
    <path class="cls-1" d="M829.86,906.44c13.64,11.15,11.13,43.47-8.41,47.46-36.64,7.49-36.18-57.46-1.22-51.32,2.48.43,7.75,2.33,9.63,3.86ZM812.89,913.34c-10.84,2.5-11.31,28.53,1.04,30.57,18.13,2.99,18.85-35.15-1.04-30.57Z"/>
    <path class="cls-1" d="M406.08,902.13c18.39,2.17,23.36,22.04,7.51,31.57l10.97,19.43-11.98-.5c-2.46-1.48-6.96-12.94-9.16-15.83-.87-1.14-1.04-2.04-2.84-1.66v18h-10.99v-49.5l1.5-1.5c4.8.4,10.31-.55,14.99,0ZM399.58,925.13c4.62-.22,11.33,1.56,12.06-4.46,1.08-8.98-5.24-7.58-12.06-7.54v12Z"/>
    <path class="cls-1" d="M669.82,902.13c5.4.78,12.56,5.38,14.02,10.97,2.33,8.93-.13,16.51-8.43,20.51l10.89,19.51-11.98-.5c-2.2-1.32-6.95-12.9-9.16-15.83-.86-1.14-1.05-2.03-2.84-1.66v18l-9.94-.06-.05-50.94c5.47.55,12.21-.76,17.48,0ZM662.33,925.13c16.74,2.53,15.06-14.06,0-12.01v12.01Z"/>
    <path class="cls-1" d="M861.64,902.13c18.27,2.16,21.28,22.3,6.62,31.47l10.86,19.52-12-.48-9.49-17.53c-4.42.03-1.32,6.16-1.4,8.51-.11,3.13-1.64,6.2-1.08,9.5h-9.99v-49.51l1.5-1.5c4.8.4,10.31-.55,14.99,0ZM865.86,922.87c5.22-5.68-4.58-12.27-10.72-9.75v12.01c2.86.26,8.73-.09,10.72-2.26Z"/>
    <path class="cls-1" d="M35.86,917.05l-8.26,1.97c-2.5-.73-3.43-9.31-12.4-5.15-10.93,5.08,12.17,10.42,14.12,11.38,12.97,6.39,9.44,26.99-5.84,28.9-12.26,1.53-22.18-2.72-23.48-15.98l9.87-1.97c1.42,15.1,23.31,5.15,14.5-.99-5.32-3.71-20.63-3.09-22.34-13.63-3.85-23.73,32.37-26.96,33.83-4.53Z"/>
    <path class="cls-1" d="M116.86,953.12l-11.04-.43-2.42-7.57-15.86-.85-3.77,8.72-10.84.13,16.92-50.56c3.04-.54,9.11-1.55,10.98,1.14l16.06,49.42ZM95.88,917.13c-2.7-.25-1.61,0-1.96,1.52-1.14,4.93-2.7,9.63-4.02,14.48h9.98s-4-16-4-16Z"/>
    <path class="cls-1" d="M500.5,918.13c2.33.51,1.6-.32,2.22-1.28,1.73-2.68,5.41-12.43,7.16-13.81,2.51-1.96,8.34-.47,11.58-.9,1.9,1.82-12.62,22.05-13.97,25.49l13.98,25.49-12.83-.15-8.14-14.83-7.16,14.83-11.82.16,13.02-24.57-13.02-26.42,11.99.49,7,15.51Z"/>
    <path class="cls-1" d="M538.45,936.13v17h-10.99v-51h15.48c1.17,0,8.04,1.85,9.5,2.49,9.04,3.98,10.25,17.88,5.39,25.41-3.93,6.08-12.81,6.45-19.38,6.1ZM537.46,913.14l.42,12.02c15.84,5.06,16.01-15.34-.42-12.02Z"/>
    <path class="cls-1" d="M457.53,913.13v10h14.99v10h-13.99l-1,10h17.98v10h-27.97v-51h27.47l1.34,1.66c.28,1.26.22,2.56.22,3.84,0,2.05.33,4.23-1.56,5.5h-17.48Z"/>
    <polygon class="cls-1" points="380.61 902.13 380.61 913.13 362.62 913.13 362.62 923.13 377.61 923.13 377.61 933.13 362.62 933.13 362.62 943.13 381.6 943.13 381.6 953.13 352.63 953.13 352.63 902.13 380.61 902.13"/>
    <polygon class="cls-1" points="721.27 902.13 721.27 913.13 703.29 913.13 703.29 923.13 718.28 923.13 718.28 933.13 704.29 933.13 703.29 943.13 721.27 943.13 721.27 953.13 693.3 953.13 693.3 903.63 694.8 902.13 721.27 902.13"/>
    <path class="cls-1" d="M914.08,913.13h-17.98v10h13.99v10h-13.99v10h17.98v10h-27.97c-.24-12.49.3-25.04.05-37.54-.08-3.95-2.26-9.91.45-13.46h25.97c2.84,2.64,1.05,7.43,1.5,11Z"/>
    <path class="cls-1" d="M126.85,933.63c-.64-3.82-16.42-30.23-14.98-31.49l11.58.9,8.41,19.09c1.31.98,8.01-17.56,9.23-18.74,2.2-2.13,8.71-.98,11.74-1.25.29,1.43-.33,2.46-.78,3.71-1.72,4.73-14.2,24.97-14.2,26.78v20.5h-10.99c-.69-5.96.95-13.82,0-19.5Z"/>
    <polygon class="cls-1" points="73.91 902.13 73.91 913.13 61.92 913.13 61.92 953.13 51.93 953.13 51.93 913.13 40.93 913.13 40.94 902.13 73.91 902.13"/>
    <path class="cls-1" d="M578.41,943.13h16.98v10h-27.97v-51c3.57.45,8.35-1.35,10.99,1.5v39.5Z"/>
    <polygon class="cls-1" points="185.8 902.13 185.8 943.13 201.78 943.13 202.78 953.13 174.81 953.13 174.81 902.13 185.8 902.13"/>
  </g>
</svg>